<?xml version="1.0" encoding="UTF-8" standalone="no"?>
<svg width="91px" height="140px" viewBox="0 0 91 140" version="1.1" xmlns="http://www.w3.org/2000/svg" xmlns:xlink="http://www.w3.org/1999/xlink" xmlns:sketch="http://www.bohemiancoding.com/sketch/ns">
    <!-- Generator: Sketch 3.1.1 (8761) - http://www.bohemiancoding.com/sketch -->
    <title>logo</title>
    <desc>Created with Sketch.</desc>
    <defs>
        <filter x="-50%" y="-50%" width="200%" height="200%" filterUnits="objectBoundingBox" id="filter-1" filterRes="500">
            <feOffset dx="0" dy="1" in="SourceAlpha" result="shadowOffsetInner1"></feOffset>
            <feGaussianBlur stdDeviation="0.5" in="shadowOffsetInner1" result="shadowBlurInner1"></feGaussianBlur>
            <feComposite in="shadowBlurInner1" in2="SourceAlpha" operator="arithmetic" k2="-1" k3="1" result="shadowInnerInner1"></feComposite>
            <feColorMatrix values="0 0 0 0 0.239215686   0 0 0 0 0.105882353   0 0 0 0 0.392156863  0 0 0 0.7 0" in="shadowInnerInner1" type="matrix" result="shadowMatrixInner1"></feColorMatrix>
            <feMerge>
                <feMergeNode in="SourceGraphic"></feMergeNode>
                <feMergeNode in="shadowMatrixInner1"></feMergeNode>
            </feMerge>
        </filter>
    </defs>
    <g id="Page-1" stroke="none" stroke-width="1" fill="none" fill-rule="evenodd" sketch:type="MSPage">
        <g id="home" sketch:type="MSArtboardGroup" transform="translate(-534.000000, -53.000000)" filter="url(#filter-1)" fill="#FFFFFF">
            <g id="Augur-+-Path-7" sketch:type="MSLayerGroup" transform="translate(0.000000, 53.000000)">
                <path d="M593.172496,126.839899 C590.271309,122.128543 585.880551,106.129933 589.430586,91.3990056 C592.080094,80.4048288 597.251654,69.4637931 604.214579,58.9208223 C607.910866,53.3240583 611.874816,48.1992645 615.835276,43.6633048 C617.217515,42.0802105 624.5,34.7576205 624.5,34.7576205 L566.103199,0 L534.5,53.4160217 L572.54051,77.2626191 L597.1864,38.2615661 L572.54051,24.2165994 C572.54051,24.2165994 563.153998,42.3964397 558.192414,48.2447664 C558.192414,48.2447664 561.712259,50.2225575 567.893228,53.9200129 C570.944434,44.2831351 576.889853,35.3191313 576.889853,35.3191313 L586.913809,40.8750378 L570.277003,67.0739754 L544.497246,50.9477078 L568.703935,10.1052039 L612.726115,36.3004071 C612.420641,36.5939341 611.617557,37.1715447 610.155052,38.8465679 C605.987673,43.6195154 601.823784,49.0027998 597.934089,54.8924148 C590.535013,66.0957866 585.009041,77.7866206 582.139802,89.692578 C578.155909,106.223807 583.422814,123.180181 585.825108,129.887212 C588.012766,135.994994 590.882969,140 590.882969,140 L597.917295,132.297004 C597.730071,132.13792 596.073684,131.551256 593.172496,126.839899 Z" id="logo" sketch:type="MSShapeGroup"></path>
            </g>
        </g>
    </g>
</svg>